<mxfile host="app.diagrams.net" modified="2022-06-09T01:41:24.331Z" agent="5.0 (Windows NT 10.0; Win64; x64) AppleWebKit/537.36 (KHTML, like Gecko) Chrome/102.0.5005.63 Safari/537.36" etag="_00tu06eNkrwrU2WafS2" version="19.0.3" type="github">
  <diagram id="7cCDwksuUV1M2PXKsDtS" name="Page-1">
    <mxGraphModel dx="1422" dy="762" grid="1" gridSize="10" guides="1" tooltips="1" connect="1" arrows="1" fold="1" page="1" pageScale="1" pageWidth="827" pageHeight="1169" math="0" shadow="0">
      <root>
        <mxCell id="0" />
        <mxCell id="1" parent="0" />
        <mxCell id="clIJVs1NPhCd1CZDtegX-2" value="&lt;div style=&quot;text-align: center;&quot;&gt;&lt;b style=&quot;background-color: initial;&quot;&gt;Usuarios&lt;/b&gt;&lt;/div&gt;&lt;table&gt;&lt;tbody&gt;&lt;tr&gt;&lt;td&gt;&lt;u&gt;usuario_id: integer(PK)&lt;/u&gt;&lt;/td&gt;&lt;/tr&gt;&lt;tr&gt;&lt;td&gt;login: varchar(35) NN&lt;/td&gt;&lt;/tr&gt;&lt;tr&gt;&lt;td&gt;password: varchar(35) NN&lt;/td&gt;&lt;/tr&gt;&lt;tr&gt;&lt;td&gt;nickname: varchar(35) NN&lt;/td&gt;&lt;/tr&gt;&lt;tr&gt;&lt;td&gt;email: varchar(40) NN UNIQUE&lt;/td&gt;&lt;/tr&gt;&lt;/tbody&gt;&lt;/table&gt;" style="rounded=1;whiteSpace=wrap;html=1;align=left;" vertex="1" parent="1">
          <mxGeometry x="20" y="360" width="190" height="140" as="geometry" />
        </mxCell>
        <mxCell id="clIJVs1NPhCd1CZDtegX-3" value="&lt;div style=&quot;text-align: center;&quot;&gt;&lt;span style=&quot;background-color: initial;&quot;&gt;&lt;b&gt;Categorias&lt;/b&gt;&lt;/span&gt;&lt;/div&gt;&lt;table style=&quot;&quot;&gt;&lt;tbody&gt;&lt;tr&gt;&lt;td&gt;&lt;u&gt;categorias_id: integer (PK)&lt;/u&gt;&lt;/td&gt;&lt;/tr&gt;&lt;tr&gt;&lt;td&gt;categoria: varchar(50)&lt;/td&gt;&lt;/tr&gt;&lt;/tbody&gt;&lt;/table&gt;" style="rounded=1;whiteSpace=wrap;html=1;align=left;" vertex="1" parent="1">
          <mxGeometry x="20" y="630" width="170" height="70" as="geometry" />
        </mxCell>
        <mxCell id="clIJVs1NPhCd1CZDtegX-5" value="&lt;div style=&quot;text-align: center;&quot;&gt;&lt;span style=&quot;background-color: initial;&quot;&gt;Etiquetas&lt;/span&gt;&lt;/div&gt;&lt;table&gt;&lt;tbody&gt;&lt;tr&gt;&lt;td&gt;&lt;u&gt;etiquetas_id: integer (PK)&lt;/u&gt;&lt;/td&gt;&lt;/tr&gt;&lt;tr&gt;&lt;td&gt;etiquetas: varchar(50)&lt;/td&gt;&lt;/tr&gt;&lt;/tbody&gt;&lt;/table&gt;" style="rounded=1;whiteSpace=wrap;html=1;align=left;" vertex="1" parent="1">
          <mxGeometry x="620" y="630" width="150" height="60" as="geometry" />
        </mxCell>
      </root>
    </mxGraphModel>
  </diagram>
</mxfile>
